<svg width="32" height="32" viewBox="0 0 32 32" version="1.1"
    xmlns="http://www.w3.org/2000/svg">
    <path fill="#fff" d="M30.5,0 L30,0 L30,1.66666667 C30,2.21666667 29.6625,2.66666667 29.25,2.66666667 L26.75,2.66666667 C26.3375,2.66666667 26,2.21666667 26,1.66666667 L26,0 L6,0 L6,1.66666667 C6,2.21666667 5.6625,2.66666667 5.25,2.66666667 L2.75,2.66666667 C2.3375,2.66666667 2,2.21666667 2,1.66666667 L2,0 L1.5,0 C0.66875,0 0,0.891666667 0,2 L0,30 C0,31.1083333 0.66875,32 1.5,32 L2,32 L2,30.3333333 C2,29.7833333 2.3375,29.3333333 2.75,29.3333333 L5.25,29.3333333 C5.6625,29.3333333 6,29.7833333 6,30.3333333 L6,32 L26,32 L26,30.3333333 C26,29.7833333 26.3375,29.3333333 26.75,29.3333333 L29.25,29.3333333 C29.6625,29.3333333 30,29.7833333 30,30.3333333 L30,32 L30.5,32 C31.33125,32 32,31.1083333 32,30 L32,2 C32,0.891666667 31.33125,0 30.5,0 Z M6,25.6666667 C6,26.2166667 5.6625,26.6666667 5.25,26.6666667 L2.75,26.6666667 C2.3375,26.6666667 2,26.2166667 2,25.6666667 L2,22.3333333 C2,21.7833333 2.3375,21.3333333 2.75,21.3333333 L5.25,21.3333333 C5.6625,21.3333333 6,21.7833333 6,22.3333333 L6,25.6666667 Z M6,17.6666667 C6,18.2166667 5.6625,18.6666667 5.25,18.6666667 L2.75,18.6666667 C2.3375,18.6666667 2,18.2166667 2,17.6666667 L2,14.3333333 C2,13.7833333 2.3375,13.3333333 2.75,13.3333333 L5.25,13.3333333 C5.6625,13.3333333 6,13.7833333 6,14.3333333 L6,17.6666667 Z M6,9.66666667 C6,10.2166667 5.6625,10.6666667 5.25,10.6666667 L2.75,10.6666667 C2.3375,10.6666667 2,10.2166667 2,9.66666667 L2,6.33333333 C2,5.78333333 2.3375,5.33333333 2.75,5.33333333 L5.25,5.33333333 C5.6625,5.33333333 6,5.78333333 6,6.33333333 L6,9.66666667 Z M23,27 C23,27.55 22.6625,28 22.25,28 L9.75,28 C9.3375,28 9,27.55 9,27 L9,19 C9,18.45 9.3375,18 9.75,18 L22.25,18 C22.6625,18 23,18.45 23,19 L23,27 Z M23,13 C23,13.55 22.6625,14 22.25,14 L9.75,14 C9.3375,14 9,13.55 9,13 L9,5 C9,4.45 9.3375,4 9.75,4 L22.25,4 C22.6625,4 23,4.45 23,5 L23,13 Z M30,25.6666667 C30,26.2166667 29.6625,26.6666667 29.25,26.6666667 L26.75,26.6666667 C26.3375,26.6666667 26,26.2166667 26,25.6666667 L26,22.3333333 C26,21.7833333 26.3375,21.3333333 26.75,21.3333333 L29.25,21.3333333 C29.6625,21.3333333 30,21.7833333 30,22.3333333 L30,25.6666667 Z M30,17.6666667 C30,18.2166667 29.6625,18.6666667 29.25,18.6666667 L26.75,18.6666667 C26.3375,18.6666667 26,18.2166667 26,17.6666667 L26,14.3333333 C26,13.7833333 26.3375,13.3333333 26.75,13.3333333 L29.25,13.3333333 C29.6625,13.3333333 30,13.7833333 30,14.3333333 L30,17.6666667 Z M30,9.66666667 C30,10.2166667 29.6625,10.6666667 29.25,10.6666667 L26.75,10.6666667 C26.3375,10.6666667 26,10.2166667 26,9.66666667 L26,6.33333333 C26,5.78333333 26.3375,5.33333333 26.75,5.33333333 L29.25,5.33333333 C29.6625,5.33333333 30,5.78333333 30,6.33333333 L30,9.66666667 Z"></path>
</svg>